<?xml version="1.0" encoding="UTF-8"?>
<svg xmlns="http://www.w3.org/2000/svg" xmlns:xlink="http://www.w3.org/1999/xlink" width="40px" height="40px" viewBox="0 0 40 40" version="1.1">
<g id="surface1">
<path style=" stroke:none;fill-rule:nonzero;fill:rgb(0%,0%,0%);fill-opacity:1;" d="M 0 20 L 0 40 L 40 40 L 40 0 L 0 0 Z M 19.34375 7.871094 C 19.558594 8.027344 19.632812 8.355469 19.511719 8.605469 C 19.414062 8.8125 19.246094 8.894531 18.730469 8.984375 C 17.015625 9.28125 15.488281 9.914062 14.257812 10.832031 C 13.449219 11.441406 12.542969 12.351562 11.964844 13.144531 C 11.027344 14.425781 10.28125 16.296875 10.117188 17.753906 C 10.050781 18.328125 10.015625 18.453125 9.878906 18.613281 C 9.664062 18.855469 9.300781 18.886719 9.058594 18.683594 C 8.8125 18.472656 8.785156 18.300781 8.886719 17.511719 C 9.28125 14.503906 11.050781 11.617188 13.632812 9.777344 C 14.894531 8.878906 16.460938 8.214844 18.007812 7.917969 C 18.296875 7.859375 18.570312 7.808594 18.613281 7.796875 C 18.65625 7.785156 18.816406 7.78125 18.964844 7.785156 C 19.167969 7.792969 19.265625 7.8125 19.34375 7.871094 Z M 22.25 7.910156 C 25.171875 8.511719 27.730469 10.257812 29.441406 12.8125 C 30.015625 13.675781 30.429688 14.53125 30.78125 15.585938 C 31.035156 16.34375 31.140625 16.785156 31.230469 17.472656 C 31.304688 18.042969 31.304688 18.332031 31.234375 18.46875 C 31.097656 18.734375 30.800781 18.867188 30.53125 18.789062 C 30.207031 18.695312 30.105469 18.511719 30.019531 17.847656 C 29.753906 15.792969 28.921875 13.960938 27.511719 12.339844 C 25.949219 10.535156 23.9375 9.414062 21.453125 8.964844 C 21.050781 8.890625 20.890625 8.792969 20.796875 8.566406 C 20.683594 8.296875 20.789062 7.960938 21.03125 7.835938 C 21.191406 7.753906 21.617188 7.777344 22.25 7.910156 Z M 21.621094 10.527344 C 23.011719 10.777344 24.191406 11.550781 25.007812 12.746094 C 25.644531 13.675781 25.972656 14.9375 25.859375 16.023438 C 25.75 17.125 25.375 18.015625 24.664062 18.863281 C 23.976562 19.683594 23.027344 20.246094 21.953125 20.46875 C 21.570312 20.550781 21.414062 20.558594 19.453125 20.574219 L 17.363281 20.589844 L 16.472656 21.476562 C 15.980469 21.964844 15.34375 22.613281 15.050781 22.917969 C 14.757812 23.226562 14.503906 23.476562 14.484375 23.476562 C 14.464844 23.476562 14.457031 21.203125 14.460938 18.054688 C 14.476562 12.003906 14.453125 12.492188 14.753906 11.875 C 14.964844 11.441406 15.453125 10.964844 15.90625 10.746094 C 16.464844 10.476562 16.464844 10.476562 19.023438 10.472656 C 20.863281 10.46875 21.371094 10.480469 21.621094 10.527344 Z M 9.8125 19.980469 C 9.972656 20.101562 10.066406 20.304688 10.117188 20.644531 C 10.320312 22.054688 10.882812 23.578125 11.617188 24.707031 C 11.835938 25.042969 12.566406 26.019531 12.628906 26.058594 C 12.648438 26.074219 12.648438 26.09375 12.621094 26.109375 C 12.597656 26.125 12.585938 26.15625 12.601562 26.175781 C 12.613281 26.199219 12.613281 26.242188 12.601562 26.277344 C 12.582031 26.324219 12.566406 26.328125 12.519531 26.289062 C 12.46875 26.25 12.460938 26.257812 12.460938 26.34375 C 12.460938 26.417969 12.441406 26.445312 12.382812 26.445312 C 12.339844 26.445312 12.304688 26.472656 12.304688 26.503906 C 12.304688 26.535156 12.269531 26.5625 12.226562 26.5625 C 12.1875 26.5625 12.132812 26.597656 12.109375 26.640625 C 12.085938 26.683594 12.050781 26.71875 12.03125 26.71875 C 11.964844 26.71875 11.839844 26.847656 11.863281 26.890625 C 11.921875 27 11.410156 26.46875 11.1875 26.191406 C 10.148438 24.898438 9.378906 23.273438 9.023438 21.621094 C 8.90625 21.074219 8.828125 20.464844 8.855469 20.351562 C 8.890625 20.207031 9.015625 20.042969 9.15625 19.953125 C 9.3125 19.855469 9.664062 19.871094 9.8125 19.980469 Z M 30.980469 19.972656 C 31.054688 20.019531 31.152344 20.136719 31.203125 20.234375 C 31.28125 20.386719 31.289062 20.445312 31.269531 20.664062 C 31.230469 21.042969 31.03125 22.03125 30.894531 22.5 C 30.554688 23.664062 29.867188 25.058594 29.179688 25.972656 C 28.902344 26.335938 28.464844 26.804688 28.5 26.699219 C 28.515625 26.65625 28.515625 26.632812 28.5 26.648438 C 28.457031 26.683594 28.359375 26.59375 28.390625 26.546875 C 28.402344 26.527344 28.382812 26.523438 28.34375 26.535156 C 28.296875 26.554688 28.226562 26.511719 28.105469 26.386719 C 28.011719 26.289062 27.929688 26.210938 27.917969 26.210938 C 27.886719 26.210938 27.65625 25.988281 27.65625 25.957031 C 27.65625 25.941406 27.757812 25.792969 27.882812 25.628906 C 29.058594 24.089844 29.671875 22.691406 29.980469 20.839844 C 30.082031 20.21875 30.121094 20.125 30.351562 19.96875 C 30.527344 19.851562 30.800781 19.851562 30.980469 19.972656 Z M 23.472656 22.296875 C 23.609375 22.347656 23.8125 22.445312 23.921875 22.515625 C 24.289062 22.753906 24.425781 22.933594 24.824219 23.695312 C 25.191406 24.394531 25.203125 24.414062 25.324219 24.417969 C 25.394531 24.417969 25.625 24.425781 25.839844 24.429688 C 26.28125 24.4375 26.410156 24.480469 26.523438 24.667969 C 26.636719 24.855469 26.625 25.050781 26.488281 25.203125 C 26.375 25.328125 26.367188 25.332031 25.988281 25.34375 C 25.777344 25.351562 25.59375 25.371094 25.574219 25.386719 C 25.558594 25.402344 25.660156 25.613281 25.800781 25.859375 C 26.222656 26.597656 26.191406 26.398438 26.191406 28.457031 C 26.191406 30.410156 26.195312 30.378906 25.964844 30.675781 C 25.902344 30.753906 25.769531 30.871094 25.671875 30.929688 C 25.5 31.027344 25.457031 31.035156 24.921875 31.046875 C 24.5625 31.058594 24.304688 31.046875 24.199219 31.015625 C 23.851562 30.914062 23.65625 30.65625 23.609375 30.246094 C 23.574219 29.945312 23.542969 29.890625 23.328125 29.792969 C 23.144531 29.707031 23.117188 29.707031 20.414062 29.695312 C 18.0625 29.6875 17.65625 29.691406 17.480469 29.746094 C 17.160156 29.835938 17.109375 29.898438 17.070312 30.226562 C 17.027344 30.558594 16.96875 30.6875 16.78125 30.851562 C 16.589844 31.019531 16.425781 31.054688 15.816406 31.054688 C 15.167969 31.054688 14.996094 31.007812 14.765625 30.757812 C 14.460938 30.425781 14.472656 30.515625 14.472656 28.476562 C 14.472656 26.398438 14.441406 26.597656 14.867188 25.894531 C 15.003906 25.667969 15.117188 25.453125 15.117188 25.417969 C 15.117188 25.359375 15.066406 25.351562 14.742188 25.351562 C 14.367188 25.351562 14.367188 25.351562 14.234375 25.21875 C 14.132812 25.117188 14.101562 25.054688 14.101562 24.949219 C 14.101562 24.742188 14.164062 24.617188 14.304688 24.53125 C 14.417969 24.460938 14.503906 24.453125 15.023438 24.453125 C 15.535156 24.453125 15.621094 24.445312 15.671875 24.382812 C 15.707031 24.347656 15.886719 24.019531 16.078125 23.65625 C 16.464844 22.921875 16.699219 22.628906 17.054688 22.449219 C 17.253906 22.347656 17.582031 22.242188 17.792969 22.214844 C 17.859375 22.203125 19.105469 22.199219 20.566406 22.203125 L 23.222656 22.207031 Z M 13.195312 28.828125 C 13.429688 28.972656 13.476562 29.324219 13.285156 29.539062 L 13.171875 29.667969 L 10.929688 29.679688 C 9.320312 29.6875 8.664062 29.675781 8.585938 29.644531 C 8.359375 29.550781 8.257812 29.222656 8.378906 28.984375 C 8.5 28.746094 8.441406 28.753906 10.859375 28.75 C 12.996094 28.75 13.070312 28.753906 13.195312 28.828125 Z M 31.851562 28.824219 C 32.066406 28.964844 32.128906 29.222656 32.011719 29.453125 C 31.890625 29.691406 31.925781 29.6875 29.648438 29.6875 C 27.796875 29.6875 27.558594 29.679688 27.460938 29.625 C 27.316406 29.539062 27.226562 29.375 27.226562 29.199219 C 27.226562 29.082031 27.257812 29.023438 27.378906 28.902344 L 27.53125 28.75 L 29.632812 28.75 C 31.648438 28.75 31.742188 28.753906 31.851562 28.824219 Z M 31.851562 28.824219 "/>
<path style=" stroke:none;fill-rule:nonzero;fill:rgb(0%,0%,0%);fill-opacity:1;" d="M 17.539062 15.546875 L 17.539062 17.851562 L 19.191406 17.839844 L 20.839844 17.828125 L 21.152344 17.722656 C 22.167969 17.386719 22.828125 16.53125 22.828125 15.546875 C 22.824219 14.648438 22.277344 13.832031 21.421875 13.453125 C 20.984375 13.257812 20.808594 13.242188 19.113281 13.242188 L 17.539062 13.242188 Z M 17.539062 15.546875 "/>
<path style=" stroke:none;fill-rule:nonzero;fill:rgb(0%,0%,0%);fill-opacity:1;" d="M 17.753906 23.164062 C 17.34375 23.269531 17.226562 23.40625 16.648438 24.453125 C 16.277344 25.117188 16.171875 25.34375 16.1875 25.414062 L 16.210938 25.507812 L 20.390625 25.507812 C 24.550781 25.507812 24.566406 25.507812 24.609375 25.429688 C 24.644531 25.359375 24.585938 25.214844 24.210938 24.484375 C 23.6875 23.457031 23.515625 23.242188 23.171875 23.167969 C 22.933594 23.117188 17.945312 23.113281 17.753906 23.164062 Z M 17.753906 23.164062 "/>
<path style=" stroke:none;fill-rule:nonzero;fill:rgb(0%,0%,0%);fill-opacity:1;" d="M 15.289062 26.800781 C 15.246094 26.871094 15.308594 27.65625 15.375 27.859375 C 15.453125 28.105469 15.699219 28.371094 15.949219 28.488281 C 16.214844 28.609375 16.519531 28.664062 17.0625 28.683594 C 17.472656 28.699219 17.5 28.695312 17.5 28.628906 C 17.5 28.515625 17.136719 27.777344 16.980469 27.574219 C 16.789062 27.328125 16.460938 27.121094 15.996094 26.949219 C 15.53125 26.78125 15.328125 26.738281 15.289062 26.800781 Z M 15.289062 26.800781 "/>
<path style=" stroke:none;fill-rule:nonzero;fill:rgb(0%,0%,0%);fill-opacity:1;" d="M 24.980469 26.839844 C 24.609375 26.945312 24.113281 27.183594 23.933594 27.34375 C 23.851562 27.414062 23.730469 27.550781 23.667969 27.640625 C 23.519531 27.859375 23.164062 28.554688 23.164062 28.632812 C 23.164062 28.6875 23.226562 28.691406 23.605469 28.683594 C 24.382812 28.660156 24.710938 28.5625 25.019531 28.257812 C 25.273438 28 25.351562 27.757812 25.351562 27.207031 C 25.351562 26.871094 25.339844 26.757812 25.304688 26.761719 C 25.277344 26.761719 25.132812 26.796875 24.980469 26.839844 Z M 24.980469 26.839844 "/>
<path style=" stroke:none;fill-rule:nonzero;fill:rgb(0%,0%,0%);fill-opacity:1;" d="M 17.90625 27.285156 C 17.84375 27.378906 17.855469 27.503906 17.9375 27.605469 C 17.96875 27.644531 18.492188 27.65625 20.316406 27.65625 C 22.605469 27.65625 22.65625 27.65625 22.734375 27.578125 C 22.828125 27.484375 22.835938 27.332031 22.75 27.25 C 22.695312 27.195312 22.421875 27.1875 20.332031 27.1875 L 17.96875 27.1875 Z M 17.90625 27.285156 "/>
<path style=" stroke:none;fill-rule:nonzero;fill:rgb(0%,0%,0%);fill-opacity:1;" d="M 18.242188 28.164062 C 18.210938 28.222656 18.210938 28.269531 18.25 28.347656 C 18.34375 28.539062 18.480469 28.601562 18.875 28.636719 C 19.335938 28.679688 21.929688 28.636719 22.097656 28.585938 C 22.261719 28.539062 22.421875 28.347656 22.421875 28.199219 L 22.421875 28.085938 L 20.351562 28.085938 C 18.316406 28.085938 18.285156 28.085938 18.242188 28.164062 Z M 18.242188 28.164062 "/>
</g>
</svg>
