<?xml version="1.0" encoding="UTF-8"?>
<svg xmlns="http://www.w3.org/2000/svg" xmlns:xlink="http://www.w3.org/1999/xlink" width="200px" height="200px" viewBox="0 0 200 200" version="1.1">
<g id="surface1">
<path style=" stroke:none;fill-rule:nonzero;fill:rgb(0%,0%,0%);fill-opacity:1;" d="M 0 100 L 0 200 L 200 200 L 200 0 L 0 0 Z M 96.71875 39.355469 C 97.792969 40.136719 98.164062 41.777344 97.558594 43.027344 C 97.070312 44.0625 96.230469 44.472656 93.652344 44.921875 C 85.078125 46.40625 77.441406 49.570312 71.289062 54.160156 C 67.246094 57.207031 62.714844 61.757812 59.824219 65.722656 C 55.136719 72.128906 51.40625 81.484375 50.585938 88.769531 C 50.253906 91.640625 50.078125 92.265625 49.394531 93.066406 C 48.320312 94.277344 46.503906 94.433594 45.292969 93.417969 C 44.0625 92.363281 43.925781 91.503906 44.433594 87.558594 C 46.40625 72.519531 55.253906 58.085938 68.164062 48.886719 C 74.472656 44.394531 82.304688 41.074219 90.039062 39.589844 C 91.484375 39.296875 92.851562 39.042969 93.066406 38.984375 C 93.28125 38.925781 94.082031 38.90625 94.824219 38.925781 C 95.839844 38.964844 96.328125 39.0625 96.71875 39.355469 Z M 111.25 39.550781 C 125.859375 42.558594 138.652344 51.289062 147.207031 64.0625 C 150.078125 68.378906 152.148438 72.65625 153.90625 77.929688 C 155.175781 81.71875 155.703125 83.925781 156.152344 87.363281 C 156.523438 90.214844 156.523438 91.660156 156.171875 92.34375 C 155.488281 93.671875 154.003906 94.335938 152.65625 93.945312 C 151.035156 93.476562 150.527344 92.558594 150.097656 89.238281 C 148.769531 78.964844 144.609375 69.804688 137.558594 61.699219 C 129.746094 52.675781 119.6875 47.070312 107.265625 44.824219 C 105.253906 44.453125 104.453125 43.964844 103.984375 42.832031 C 103.417969 41.484375 103.945312 39.804688 105.15625 39.179688 C 105.957031 38.769531 108.085938 38.886719 111.25 39.550781 Z M 108.105469 52.636719 C 115.058594 53.886719 120.957031 57.753906 125.039062 63.730469 C 128.222656 68.378906 129.863281 74.6875 129.296875 80.117188 C 128.75 85.625 126.875 90.078125 123.320312 94.316406 C 119.882812 98.417969 115.136719 101.230469 109.765625 102.34375 C 107.851562 102.753906 107.070312 102.792969 97.265625 102.871094 L 86.816406 102.949219 L 82.363281 107.382812 C 79.902344 109.824219 76.71875 113.066406 75.253906 114.589844 C 73.789062 116.132812 72.519531 117.382812 72.421875 117.382812 C 72.324219 117.382812 72.285156 106.015625 72.304688 90.273438 C 72.382812 60.019531 72.265625 62.460938 73.769531 59.375 C 74.824219 57.207031 77.265625 54.824219 79.53125 53.730469 C 82.324219 52.382812 82.324219 52.382812 95.117188 52.363281 C 104.316406 52.34375 106.855469 52.402344 108.105469 52.636719 Z M 49.0625 99.902344 C 49.863281 100.507812 50.332031 101.523438 50.585938 103.222656 C 51.601562 110.273438 54.414062 117.890625 58.085938 123.535156 C 59.179688 125.214844 62.832031 130.097656 63.144531 130.292969 C 63.242188 130.371094 63.242188 130.46875 63.105469 130.546875 C 62.988281 130.625 62.929688 130.78125 63.007812 130.878906 C 63.066406 130.996094 63.066406 131.210938 63.007812 131.386719 C 62.910156 131.621094 62.832031 131.640625 62.597656 131.445312 C 62.34375 131.25 62.304688 131.289062 62.304688 131.71875 C 62.304688 132.089844 62.207031 132.226562 61.914062 132.226562 C 61.699219 132.226562 61.523438 132.363281 61.523438 132.519531 C 61.523438 132.675781 61.347656 132.8125 61.132812 132.8125 C 60.9375 132.8125 60.664062 132.988281 60.546875 133.203125 C 60.429688 133.417969 60.253906 133.59375 60.15625 133.59375 C 59.824219 133.59375 59.199219 134.238281 59.316406 134.453125 C 59.609375 135 57.050781 132.34375 55.9375 130.957031 C 50.742188 124.492188 46.894531 116.367188 45.117188 108.105469 C 44.53125 105.371094 44.140625 102.324219 44.277344 101.757812 C 44.453125 101.035156 45.078125 100.214844 45.78125 99.765625 C 46.5625 99.277344 48.320312 99.355469 49.0625 99.902344 Z M 154.902344 99.863281 C 155.273438 100.097656 155.761719 100.683594 156.015625 101.171875 C 156.40625 101.933594 156.445312 102.226562 156.347656 103.320312 C 156.152344 105.214844 155.15625 110.15625 154.472656 112.5 C 152.773438 118.320312 149.335938 125.292969 145.898438 129.863281 C 144.511719 131.679688 142.324219 134.023438 142.5 133.496094 C 142.578125 133.28125 142.578125 133.164062 142.5 133.242188 C 142.285156 133.417969 141.796875 132.96875 141.953125 132.734375 C 142.011719 132.636719 141.914062 132.617188 141.71875 132.675781 C 141.484375 132.773438 141.132812 132.558594 140.527344 131.933594 C 140.058594 131.445312 139.648438 131.054688 139.589844 131.054688 C 139.433594 131.054688 138.28125 129.941406 138.28125 129.785156 C 138.28125 129.707031 138.789062 128.964844 139.414062 128.144531 C 145.292969 120.449219 148.359375 113.457031 149.902344 104.199219 C 150.410156 101.09375 150.605469 100.625 151.757812 99.84375 C 152.636719 99.257812 154.003906 99.257812 154.902344 99.863281 Z M 117.363281 111.484375 C 118.046875 111.738281 119.0625 112.226562 119.609375 112.578125 C 121.445312 113.769531 122.128906 114.667969 124.121094 118.476562 C 125.957031 121.972656 126.015625 122.070312 126.621094 122.089844 C 126.972656 122.089844 128.125 122.128906 129.199219 122.148438 C 131.40625 122.1875 132.050781 122.402344 132.617188 123.339844 C 133.183594 124.277344 133.125 125.253906 132.441406 126.015625 C 131.875 126.640625 131.835938 126.660156 129.941406 126.71875 C 128.886719 126.757812 127.96875 126.855469 127.871094 126.933594 C 127.792969 127.011719 128.300781 128.066406 129.003906 129.296875 C 131.113281 132.988281 130.957031 131.992188 130.957031 142.285156 C 130.957031 152.050781 130.976562 151.894531 129.824219 153.378906 C 129.511719 153.769531 128.847656 154.355469 128.359375 154.648438 C 127.5 155.136719 127.285156 155.175781 124.609375 155.234375 C 122.8125 155.292969 121.523438 155.234375 120.996094 155.078125 C 119.257812 154.570312 118.28125 153.28125 118.046875 151.230469 C 117.871094 149.726562 117.714844 149.453125 116.640625 148.964844 C 115.722656 148.535156 115.585938 148.535156 102.070312 148.476562 C 90.3125 148.4375 88.28125 148.457031 87.402344 148.730469 C 85.800781 149.179688 85.546875 149.492188 85.351562 151.132812 C 85.136719 152.792969 84.84375 153.4375 83.90625 154.257812 C 82.949219 155.097656 82.128906 155.273438 79.082031 155.273438 C 75.839844 155.273438 74.980469 155.039062 73.828125 153.789062 C 72.304688 152.128906 72.363281 152.578125 72.363281 142.382812 C 72.363281 131.992188 72.207031 132.988281 74.335938 129.472656 C 75.019531 128.339844 75.585938 127.265625 75.585938 127.089844 C 75.585938 126.796875 75.332031 126.757812 73.710938 126.757812 C 71.835938 126.757812 71.835938 126.757812 71.171875 126.09375 C 70.664062 125.585938 70.507812 125.273438 70.507812 124.746094 C 70.507812 123.710938 70.820312 123.085938 71.523438 122.65625 C 72.089844 122.304688 72.519531 122.265625 75.117188 122.265625 C 77.675781 122.265625 78.105469 122.226562 78.359375 121.914062 C 78.535156 121.738281 79.433594 120.097656 80.390625 118.28125 C 82.324219 114.609375 83.496094 113.144531 85.273438 112.246094 C 86.269531 111.738281 87.910156 111.210938 88.964844 111.074219 C 89.296875 111.015625 95.527344 110.996094 102.832031 111.015625 L 116.113281 111.035156 Z M 65.976562 144.140625 C 67.148438 144.863281 67.382812 146.621094 66.425781 147.695312 L 65.859375 148.339844 L 54.648438 148.398438 C 46.601562 148.4375 43.320312 148.378906 42.929688 148.222656 C 41.796875 147.753906 41.289062 146.113281 41.894531 144.921875 C 42.5 143.730469 42.207031 143.769531 54.296875 143.75 C 64.980469 143.75 65.351562 143.769531 65.976562 144.140625 Z M 159.257812 144.121094 C 160.332031 144.824219 160.644531 146.113281 160.058594 147.265625 C 159.453125 148.457031 159.628906 148.4375 148.242188 148.4375 C 138.984375 148.4375 137.792969 148.398438 137.304688 148.125 C 136.582031 147.695312 136.132812 146.875 136.132812 145.996094 C 136.132812 145.410156 136.289062 145.117188 136.894531 144.511719 L 137.65625 143.75 L 148.164062 143.75 C 158.242188 143.75 158.710938 143.769531 159.257812 144.121094 Z M 159.257812 144.121094 "/>
<path style=" stroke:none;fill-rule:nonzero;fill:rgb(0%,0%,0%);fill-opacity:1;" d="M 87.695312 77.734375 L 87.695312 89.257812 L 95.957031 89.199219 L 104.199219 89.140625 L 105.761719 88.613281 C 110.839844 86.933594 114.140625 82.65625 114.140625 77.734375 C 114.121094 73.242188 111.386719 69.160156 107.109375 67.265625 C 104.921875 66.289062 104.042969 66.210938 95.566406 66.210938 L 87.695312 66.210938 Z M 87.695312 77.734375 "/>
<path style=" stroke:none;fill-rule:nonzero;fill:rgb(0%,0%,0%);fill-opacity:1;" d="M 88.769531 115.820312 C 86.71875 116.347656 86.132812 117.03125 83.242188 122.265625 C 81.386719 125.585938 80.859375 126.71875 80.9375 127.070312 L 81.054688 127.539062 L 101.953125 127.539062 C 122.753906 127.539062 122.832031 127.539062 123.046875 127.148438 C 123.222656 126.796875 122.929688 126.074219 121.054688 122.421875 C 118.4375 117.285156 117.578125 116.210938 115.859375 115.839844 C 114.667969 115.585938 89.726562 115.566406 88.769531 115.820312 Z M 88.769531 115.820312 "/>
<path style=" stroke:none;fill-rule:nonzero;fill:rgb(0%,0%,0%);fill-opacity:1;" d="M 76.445312 134.003906 C 76.230469 134.355469 76.542969 138.28125 76.875 139.296875 C 77.265625 140.527344 78.496094 141.855469 79.746094 142.441406 C 81.074219 143.046875 82.597656 143.320312 85.3125 143.417969 C 87.363281 143.496094 87.5 143.476562 87.5 143.144531 C 87.5 142.578125 85.683594 138.886719 84.902344 137.871094 C 83.945312 136.640625 82.304688 135.605469 79.980469 134.746094 C 77.65625 133.90625 76.640625 133.691406 76.445312 134.003906 Z M 76.445312 134.003906 "/>
<path style=" stroke:none;fill-rule:nonzero;fill:rgb(0%,0%,0%);fill-opacity:1;" d="M 124.902344 134.199219 C 123.046875 134.726562 120.566406 135.917969 119.667969 136.71875 C 119.257812 137.070312 118.652344 137.753906 118.339844 138.203125 C 117.597656 139.296875 115.820312 142.773438 115.820312 143.164062 C 115.820312 143.4375 116.132812 143.457031 118.027344 143.417969 C 121.914062 143.300781 123.554688 142.8125 125.097656 141.289062 C 126.367188 140 126.757812 138.789062 126.757812 136.035156 C 126.757812 134.355469 126.699219 133.789062 126.523438 133.808594 C 126.386719 133.808594 125.664062 133.984375 124.902344 134.199219 Z M 124.902344 134.199219 "/>
<path style=" stroke:none;fill-rule:nonzero;fill:rgb(0%,0%,0%);fill-opacity:1;" d="M 89.53125 136.425781 C 89.21875 136.894531 89.277344 137.519531 89.6875 138.027344 C 89.84375 138.222656 92.460938 138.28125 101.582031 138.28125 C 113.027344 138.28125 113.28125 138.28125 113.671875 137.890625 C 114.140625 137.421875 114.179688 136.660156 113.75 136.25 C 113.476562 135.976562 112.109375 135.9375 101.660156 135.9375 L 89.84375 135.9375 Z M 89.53125 136.425781 "/>
<path style=" stroke:none;fill-rule:nonzero;fill:rgb(0%,0%,0%);fill-opacity:1;" d="M 91.210938 140.820312 C 91.054688 141.113281 91.054688 141.347656 91.25 141.738281 C 91.71875 142.695312 92.402344 143.007812 94.375 143.183594 C 96.679688 143.398438 109.648438 143.183594 110.488281 142.929688 C 111.308594 142.695312 112.109375 141.738281 112.109375 140.996094 L 112.109375 140.429688 L 101.757812 140.429688 C 91.582031 140.429688 91.425781 140.429688 91.210938 140.820312 Z M 91.210938 140.820312 "/>
</g>
</svg>
